<?xml version="1.0" standalone="no"?>
<!DOCTYPE svg PUBLIC "-//W3C//DTD SVG 20010904//EN"
 "http://www.w3.org/TR/2001/REC-SVG-20010904/DTD/svg10.dtd">
<svg version="1.0" xmlns="http://www.w3.org/2000/svg"
 width="512.000000pt" height="512.000000pt" viewBox="0 0 512.000000 512.000000"
 preserveAspectRatio="xMidYMid meet">
<metadata>
Created by potrace 1.14, written by Peter Selinger 2001-2017
</metadata>
<g transform="translate(0.000000,512.000000) scale(0.100000,-0.100000)"
fill="#000000" stroke="none">
<path d="M628 5004 c-99 -16 -183 -50 -273 -109 -114 -76 -188 -162 -245 -289
-57 -126 -57 -114 -55 -1411 l1 -1190 26 -77 c53 -158 149 -287 280 -374 77
-52 202 -99 288 -108 30 -4 57 -11 60 -15 3 -5 5 -304 5 -665 0 -642 0 -655
19 -638 10 9 312 311 671 669 l652 652 1229 4 c1368 3 1260 -3 1412 72 167 83
291 230 353 420 l23 70 1 1185 c2 987 -1 1197 -12 1260 -8 41 -18 79 -23 85
-4 5 -13 27 -19 47 -7 20 -29 63 -50 95 -99 154 -237 254 -416 304 l-80 22
-1890 1 c-1332 1 -1910 -2 -1957 -10z m3873 -327 c80 -24 154 -79 197 -148 59
-96 56 -19 58 -1264 1 -627 -2 -1144 -5 -1150 -4 -5 -8 -25 -10 -44 -6 -76
-59 -172 -123 -226 -18 -16 -58 -40 -88 -54 l-55 -26 -1278 -3 -1277 -2 -435
-435 c-239 -239 -438 -435 -443 -435 -4 0 -7 194 -7 431 0 279 -4 433 -10 435
-5 2 -93 5 -195 7 -174 3 -188 5 -242 29 -106 49 -186 149 -207 261 -4 24 -7
565 -6 1203 1 1103 2 1161 20 1204 49 121 166 214 287 229 29 3 888 6 1908 5
1681 -1 1860 -2 1911 -17z"/>
<path d="M1320 3578 c-65 -11 -98 -26 -156 -69 -131 -96 -175 -276 -105 -423
88 -185 305 -257 489 -162 43 22 116 100 140 149 88 177 16 390 -161 476 -37
18 -63 24 -142 35 -11 1 -40 -1 -65 -6z"/>
<path d="M2485 3573 c-108 -25 -194 -93 -243 -192 -23 -48 -27 -68 -26 -141 0
-100 2 -110 34 -173 31 -62 96 -122 168 -155 47 -22 71 -27 142 -27 77 0 92 3
152 33 133 65 206 194 196 342 -16 213 -215 360 -423 313z"/>
<path d="M3687 3579 c-156 -25 -282 -164 -292 -321 -4 -71 17 -161 51 -214 31
-48 95 -103 154 -132 48 -23 67 -27 145 -26 76 0 99 4 146 27 203 98 266 349
133 530 -73 100 -212 156 -337 136z"/>
</g>
</svg>
